<svg width="50" height="48" viewBox="0 0 50 48" fill="none" xmlns="http://www.w3.org/2000/svg">
<rect width="49" height="48" transform="translate(0.5)" fill="#E0E3EB"/>
<path d="M19.7122 18.7562C19.7122 19.5846 19.0406 20.2562 18.2122 20.2562C17.3838 20.2562 16.7122 19.5846 16.7122 18.7562C16.7122 17.9278 17.3838 17.2562 18.2122 17.2562C19.0406 17.2562 19.7122 17.9278 19.7122 18.7562Z" fill="#6C7385"/>
<path fill-rule="evenodd" clip-rule="evenodd" d="M11.332 14.6663C11.332 13.3777 12.3767 12.333 13.6654 12.333H28.9987C29.359 12.333 29.6914 12.5268 29.8689 12.8403C30.0464 13.1538 30.0415 13.5386 29.8562 13.8475L28.1818 16.6382L29.1641 18.1116C29.3232 18.3503 29.3722 18.6458 29.2985 18.923C29.2249 19.2002 29.0358 19.4325 28.7792 19.5608L24.0906 21.9051L24.6553 25.8583C24.726 26.353 24.4206 26.8239 23.9401 26.9612L20.2234 28.0231L21.9635 34.4032C22.0455 34.7039 21.9826 35.0256 21.7934 35.2733C21.6042 35.521 21.3104 35.6663 20.9987 35.6663H13.6654C12.3767 35.6663 11.332 34.6217 11.332 33.333V14.6663ZM13.6654 14.333C13.4813 14.333 13.332 14.4822 13.332 14.6663V33.333C13.332 33.5171 13.4813 33.6663 13.6654 33.6663H19.6894L18.0339 27.5961C17.8899 27.0678 18.1975 26.5219 18.724 26.3715L22.5521 25.2777L22.0087 21.4744C21.9479 21.0483 22.1665 20.6311 22.5515 20.4386L26.8716 18.2785L26.1666 17.221C25.9523 16.8995 25.9424 16.4832 26.1412 16.1518L27.2325 14.333H13.6654Z" fill="#6C7385"/>
<path fill-rule="evenodd" clip-rule="evenodd" d="M33.5002 12.7783C33.6857 12.5001 33.9979 12.333 34.3323 12.333H36.3323C37.621 12.333 38.6656 13.3777 38.6656 14.6663V33.333C38.6656 34.6217 37.621 35.6663 36.3323 35.6663H24.999C24.5525 35.6663 24.1601 35.3704 24.0374 34.9411L22.7041 30.2744C22.5524 29.7434 22.8599 29.1899 23.3909 29.0382L27.2337 27.9402L26.6733 23.457C26.6187 23.0197 26.8568 22.5982 27.2595 22.4192L32.2266 20.2116L30.8081 17.8475C30.6093 17.5161 30.6192 17.0999 30.8336 16.7783L33.5002 12.7783ZM34.8675 14.333L32.8487 17.3612L34.5231 20.1518C34.6705 20.3975 34.7055 20.6945 34.6191 20.9677C34.5328 21.2408 34.3335 21.4638 34.0718 21.5802L28.75 23.9454L29.3246 28.5423C29.3857 29.0316 29.0811 29.4924 28.607 29.6279L24.9019 30.6865L25.7533 33.6663H36.3323C36.5164 33.6663 36.6656 33.5171 36.6656 33.333V14.6663C36.6656 14.4822 36.5164 14.333 36.3323 14.333H34.8675Z" fill="#6C7385"/>
</svg>
