<svg width="144" height="141" viewBox="0 0 144 141" fill="none" xmlns="http://www.w3.org/2000/svg">
<g id="1">
<circle id="&#229;&#186;&#149;&#229;&#156;&#136;" cx="71" cy="67" r="66" stroke="white" stroke-opacity="0.3" stroke-width="2"/>
<g id="&#229;&#164;&#150;&#231;&#142;&#175;" filter="url(#filter0_d_338_6216)">
<path d="M128.579 36.8391C134.544 48.2271 136.998 61.1283 135.632 73.9112C134.265 86.6941 129.138 98.7846 120.9 108.654C112.661 118.523 101.681 125.728 89.3484 129.357C77.0155 132.985 63.8834 132.876 51.6127 129.041" stroke="white" stroke-width="4" stroke-linecap="round"/>
</g>
<g id="&#229;&#164;&#150;&#231;&#142;&#175;_2" filter="url(#filter1_d_338_6216)">
<path d="M12.9783 97.3929C6.96712 85.9173 4.49388 72.9169 5.8713 60.0357C7.24871 47.1544 12.4149 34.9709 20.7166 25.0258C29.0183 15.0807 40.0826 7.82069 52.5105 4.16381C64.9383 0.506927 78.1714 0.617438 90.5364 4.48137" stroke="white" stroke-width="3" stroke-linecap="round"/>
</g>
</g>
<defs>
<filter id="filter0_d_338_6216" x="43.6123" y="32.8387" width="100.388" height="111.161" filterUnits="userSpaceOnUse" color-interpolation-filters="sRGB">
<feFlood flood-opacity="0" result="BackgroundImageFix"/>
<feColorMatrix in="SourceAlpha" type="matrix" values="0 0 0 0 0 0 0 0 0 0 0 0 0 0 0 0 0 0 127 0" result="hardAlpha"/>
<feOffset dy="4"/>
<feGaussianBlur stdDeviation="3"/>
<feComposite in2="hardAlpha" operator="out"/>
<feColorMatrix type="matrix" values="0 0 0 0 1 0 0 0 0 1 0 0 0 0 1 0 0 0 0.25 0"/>
<feBlend mode="normal" in2="BackgroundImageFix" result="effect1_dropShadow_338_6216"/>
<feBlend mode="normal" in="SourceGraphic" in2="effect1_dropShadow_338_6216" result="shape"/>
</filter>
<filter id="filter1_d_338_6216" x="0" y="0" width="96.0371" height="106.893" filterUnits="userSpaceOnUse" color-interpolation-filters="sRGB">
<feFlood flood-opacity="0" result="BackgroundImageFix"/>
<feColorMatrix in="SourceAlpha" type="matrix" values="0 0 0 0 0 0 0 0 0 0 0 0 0 0 0 0 0 0 127 0" result="hardAlpha"/>
<feOffset dy="4"/>
<feGaussianBlur stdDeviation="2"/>
<feComposite in2="hardAlpha" operator="out"/>
<feColorMatrix type="matrix" values="0 0 0 0 1 0 0 0 0 1 0 0 0 0 1 0 0 0 0.25 0"/>
<feBlend mode="normal" in2="BackgroundImageFix" result="effect1_dropShadow_338_6216"/>
<feBlend mode="normal" in="SourceGraphic" in2="effect1_dropShadow_338_6216" result="shape"/>
</filter>
</defs>
</svg>
